# xmcd
#
# Track frame offsets:
#	150
#	42635
#	70585
#	98307
#	120030
#	141340
#	168510
#	191517
#	220497
#	246242
#	301012
#	327325
#
# Disc length: 4640 seconds
#
# Revision: 0
# Processed by: cddbd v1.5.1PL0 Copyright (c) Steve Scherf et al.
# Submitted via: dBpowerAMP V4.0
#
DISCID=a1121e0c
DTITLE=Rockin Jake Band, The - 5pm Breakfast
DYEAR=2004
DGENRE=Blues
TTITLE0=Shake Your Hips
TTITLE1=One Way Out
TTITLE2=Baby What You Want Me To Do
TTITLE3=Zydeco Boogooloo
TTITLE4=The Lonely Frog
TTITLE5=Hot Tamale Baby
TTITLE6=Honest I Do
TTITLE7=Hit The Highway
TTITLE8=Somebody Got Soul, Soul, Soul
TTITLE9=The World is a Ghetto
TTITLE10=Turn on Your Love Light
TTITLE11=Do Whatcha Wanna
EXTD=
EXTT0=
EXTT1=
EXTT2=
EXTT3=
EXTT4=
EXTT5=
EXTT6=
EXTT7=
EXTT8=
EXTT9=
EXTT10=
EXTT11=
PLAYORDER=
